<svg width="55" height="55" viewBox="0 0 55 55" fill="none" xmlns="http://www.w3.org/2000/svg">
<circle cx="27.5" cy="27.5" r="27.5" fill="#70CF97"/>
<path d="M38.6 18.8H34.2V15.6C34.2 15.3791 34.0209 15.2 33.8 15.2H20.2C19.9791 15.2 19.8 15.3791 19.8 15.6V21.2H15.4C15.1791 21.2 15 21.3791 15 21.6V38C15 38.2209 15.1791 38.4 15.4 38.4C15.6209 38.4 15.8 38.2209 15.8 38V22H19.8V38.4C19.8 38.6209 19.9791 38.8 20.2 38.8H33.8C34.0209 38.8 34.2 38.6209 34.2 38.4V19.6H38.2V38C38.2 38.2209 38.3791 38.4 38.6 38.4C38.8209 38.4 39 38.2209 39 38V19.2C39 18.9791 38.8209 18.8 38.6 18.8ZM26.6 38H25V34.4H26.6V38ZM29 38H27.4V34.4H29V38ZM33.4 38H29.8V34C29.8 33.7791 29.6209 33.6 29.4 33.6H24.6C24.3791 33.6 24.2 33.7791 24.2 34V38H20.6V16H33.4V38Z" fill="white"/>
<path d="M24.1999 16.8H21.7999C21.579 16.8 21.3999 16.9791 21.3999 17.2V19.6C21.3999 19.8209 21.579 20 21.7999 20H24.1999C24.4208 20 24.5999 19.8209 24.5999 19.6V17.2C24.5999 16.9791 24.4208 16.8 24.1999 16.8ZM23.7999 19.2H22.1999V17.6H23.7999V19.2Z" fill="white"/>
<path d="M28.1999 16.8H25.7999C25.579 16.8 25.3999 16.9791 25.3999 17.2V19.6C25.3999 19.8209 25.579 20 25.7999 20H28.1999C28.4208 20 28.5999 19.8209 28.5999 19.6V17.2C28.5999 16.9791 28.4208 16.8 28.1999 16.8ZM27.7999 19.2H26.1999V17.6H27.7999V19.2Z" fill="white"/>
<path d="M32.1999 16.8H29.7999C29.579 16.8 29.3999 16.9791 29.3999 17.2V19.6C29.3999 19.8209 29.579 20 29.7999 20H32.1999C32.4208 20 32.5999 19.8209 32.5999 19.6V17.2C32.5999 16.9791 32.4208 16.8 32.1999 16.8ZM31.7999 19.2H30.1999V17.6H31.7999V19.2Z" fill="white"/>
<path d="M24.1999 20.8H21.7999C21.579 20.8 21.3999 20.9791 21.3999 21.2V23.6C21.3999 23.8209 21.579 24 21.7999 24H24.1999C24.4208 24 24.5999 23.8209 24.5999 23.6V21.2C24.5999 20.9791 24.4208 20.8 24.1999 20.8ZM23.7999 23.2H22.1999V21.6H23.7999V23.2Z" fill="white"/>
<path d="M28.1999 20.8H25.7999C25.579 20.8 25.3999 20.9791 25.3999 21.2V23.6C25.3999 23.8209 25.579 24 25.7999 24H28.1999C28.4208 24 28.5999 23.8209 28.5999 23.6V21.2C28.5999 20.9791 28.4208 20.8 28.1999 20.8ZM27.7999 23.2H26.1999V21.6H27.7999V23.2Z" fill="white"/>
<path d="M32.1999 20.8H29.7999C29.579 20.8 29.3999 20.9791 29.3999 21.2V23.6C29.3999 23.8209 29.579 24 29.7999 24H32.1999C32.4208 24 32.5999 23.8209 32.5999 23.6V21.2C32.5999 20.9791 32.4208 20.8 32.1999 20.8ZM31.7999 23.2H30.1999V21.6H31.7999V23.2Z" fill="white"/>
<path d="M24.1999 24.8H21.7999C21.579 24.8 21.3999 24.9791 21.3999 25.2V27.6C21.3999 27.8209 21.579 28 21.7999 28H24.1999C24.4208 28 24.5999 27.8209 24.5999 27.6V25.2C24.5999 24.9791 24.4208 24.8 24.1999 24.8ZM23.7999 27.2H22.1999V25.6H23.7999V27.2Z" fill="white"/>
<path d="M28.1999 24.8H25.7999C25.579 24.8 25.3999 24.9791 25.3999 25.2V27.6C25.3999 27.8209 25.579 28 25.7999 28H28.1999C28.4208 28 28.5999 27.8209 28.5999 27.6V25.2C28.5999 24.9791 28.4208 24.8 28.1999 24.8ZM27.7999 27.2H26.1999V25.6H27.7999V27.2Z" fill="white"/>
<path d="M32.1999 24.8H29.7999C29.579 24.8 29.3999 24.9791 29.3999 25.2V27.6C29.3999 27.8209 29.579 28 29.7999 28H32.1999C32.4208 28 32.5999 27.8209 32.5999 27.6V25.2C32.5999 24.9791 32.4208 24.8 32.1999 24.8ZM31.7999 27.2H30.1999V25.6H31.7999V27.2Z" fill="white"/>
<path d="M24.1999 28.8H21.7999C21.579 28.8 21.3999 28.9791 21.3999 29.2V31.6C21.3999 31.8209 21.579 32 21.7999 32H24.1999C24.4208 32 24.5999 31.8209 24.5999 31.6V29.2C24.5999 28.9791 24.4208 28.8 24.1999 28.8ZM23.7999 31.2H22.1999V29.6H23.7999V31.2Z" fill="white"/>
<path d="M28.1999 28.8H25.7999C25.579 28.8 25.3999 28.9791 25.3999 29.2V31.6C25.3999 31.8209 25.579 32 25.7999 32H28.1999C28.4208 32 28.5999 31.8209 28.5999 31.6V29.2C28.5999 28.9791 28.4208 28.8 28.1999 28.8ZM27.7999 31.2H26.1999V29.6H27.7999V31.2Z" fill="white"/>
<path d="M32.1999 28.8H29.7999C29.579 28.8 29.3999 28.9791 29.3999 29.2V31.6C29.3999 31.8209 29.579 32 29.7999 32H32.1999C32.4208 32 32.5999 31.8209 32.5999 31.6V29.2C32.5999 28.9791 32.4208 28.8 32.1999 28.8ZM31.7999 31.2H30.1999V29.6H31.7999V31.2Z" fill="white"/>
<path d="M17.4001 22.8H17.0001C16.7792 22.8 16.6001 22.9791 16.6001 23.2V23.6C16.6001 23.8209 16.7792 24 17.0001 24H17.4001C17.621 24 17.8001 23.8209 17.8001 23.6V23.2C17.8001 22.9791 17.621 22.8 17.4001 22.8Z" fill="white"/>
<path d="M19 22.8H18.6C18.3791 22.8 18.2 22.9791 18.2 23.2V23.6C18.2 23.8209 18.3791 24 18.6 24H19C19.2209 24 19.4 23.8209 19.4 23.6V23.2C19.4 22.9791 19.2209 22.8 19 22.8Z" fill="white"/>
<path d="M17.4001 24.4H17.0001C16.7792 24.4 16.6001 24.5791 16.6001 24.8V25.2C16.6001 25.4209 16.7792 25.6 17.0001 25.6H17.4001C17.621 25.6 17.8001 25.4209 17.8001 25.2V24.8C17.8001 24.5791 17.621 24.4 17.4001 24.4Z" fill="white"/>
<path d="M19 24.4H18.6C18.3791 24.4 18.2 24.5791 18.2 24.8V25.2C18.2 25.4209 18.3791 25.6 18.6 25.6H19C19.2209 25.6 19.4 25.4209 19.4 25.2V24.8C19.4 24.5791 19.2209 24.4 19 24.4Z" fill="white"/>
<path d="M17.4001 26H17.0001C16.7792 26 16.6001 26.1791 16.6001 26.4V26.8C16.6001 27.0209 16.7792 27.2 17.0001 27.2H17.4001C17.621 27.2 17.8001 27.0209 17.8001 26.8V26.4C17.8001 26.1791 17.621 26 17.4001 26Z" fill="white"/>
<path d="M19 26H18.6C18.3791 26 18.2 26.1791 18.2 26.4V26.8C18.2 27.0209 18.3791 27.2 18.6 27.2H19C19.2209 27.2 19.4 27.0209 19.4 26.8V26.4C19.4 26.1791 19.2209 26 19 26Z" fill="white"/>
<path d="M17.4001 27.6H17.0001C16.7792 27.6 16.6001 27.7791 16.6001 28V28.4C16.6001 28.6209 16.7792 28.8 17.0001 28.8H17.4001C17.621 28.8 17.8001 28.6209 17.8001 28.4V28C17.8001 27.7791 17.621 27.6 17.4001 27.6Z" fill="white"/>
<path d="M19 27.6H18.6C18.3791 27.6 18.2 27.7791 18.2 28V28.4C18.2 28.6209 18.3791 28.8 18.6 28.8H19C19.2209 28.8 19.4 28.6209 19.4 28.4V28C19.4 27.7791 19.2209 27.6 19 27.6Z" fill="white"/>
<path d="M17.4001 29.2H17.0001C16.7792 29.2 16.6001 29.3791 16.6001 29.6V30C16.6001 30.2209 16.7792 30.4 17.0001 30.4H17.4001C17.621 30.4 17.8001 30.2209 17.8001 30V29.6C17.8001 29.3791 17.621 29.2 17.4001 29.2Z" fill="white"/>
<path d="M19 29.2H18.6C18.3791 29.2 18.2 29.3791 18.2 29.6V30C18.2 30.2209 18.3791 30.4 18.6 30.4H19C19.2209 30.4 19.4 30.2209 19.4 30V29.6C19.4 29.3791 19.2209 29.2 19 29.2Z" fill="white"/>
<path d="M17.4001 30.8H17.0001C16.7792 30.8 16.6001 30.9791 16.6001 31.2V31.6C16.6001 31.8209 16.7792 32 17.0001 32H17.4001C17.621 32 17.8001 31.8209 17.8001 31.6V31.2C17.8001 30.9791 17.621 30.8 17.4001 30.8Z" fill="white"/>
<path d="M19 30.8H18.6C18.3791 30.8 18.2 30.9791 18.2 31.2V31.6C18.2 31.8209 18.3791 32 18.6 32H19C19.2209 32 19.4 31.8209 19.4 31.6V31.2C19.4 30.9791 19.2209 30.8 19 30.8Z" fill="white"/>
<path d="M17.4001 32.4H17.0001C16.7792 32.4 16.6001 32.5791 16.6001 32.8V33.2C16.6001 33.4209 16.7792 33.6 17.0001 33.6H17.4001C17.621 33.6 17.8001 33.4209 17.8001 33.2V32.8C17.8001 32.5791 17.621 32.4 17.4001 32.4Z" fill="white"/>
<path d="M19 32.4H18.6C18.3791 32.4 18.2 32.5791 18.2 32.8V33.2C18.2 33.4209 18.3791 33.6 18.6 33.6H19C19.2209 33.6 19.4 33.4209 19.4 33.2V32.8C19.4 32.5791 19.2209 32.4 19 32.4Z" fill="white"/>
<path d="M17.4001 34H17.0001C16.7792 34 16.6001 34.1791 16.6001 34.4V34.8C16.6001 35.0209 16.7792 35.2 17.0001 35.2H17.4001C17.621 35.2 17.8001 35.0209 17.8001 34.8V34.4C17.8001 34.1791 17.621 34 17.4001 34Z" fill="white"/>
<path d="M19 34H18.6C18.3791 34 18.2 34.1791 18.2 34.4V34.8C18.2 35.0209 18.3791 35.2 18.6 35.2H19C19.2209 35.2 19.4 35.0209 19.4 34.8V34.4C19.4 34.1791 19.2209 34 19 34Z" fill="white"/>
<path d="M17.4001 35.6H17.0001C16.7792 35.6 16.6001 35.7791 16.6001 36V36.4C16.6001 36.6209 16.7792 36.8 17.0001 36.8H17.4001C17.621 36.8 17.8001 36.6209 17.8001 36.4V36C17.8001 35.7791 17.621 35.6 17.4001 35.6Z" fill="white"/>
<path d="M19 35.6H18.6C18.3791 35.6 18.2 35.7791 18.2 36V36.4C18.2 36.6209 18.3791 36.8 18.6 36.8H19C19.2209 36.8 19.4 36.6209 19.4 36.4V36C19.4 35.7791 19.2209 35.6 19 35.6Z" fill="white"/>
<path d="M37 20.4H35.4C35.1791 20.4 35 20.5791 35 20.8V22.4C35 22.6209 35.1791 22.8 35.4 22.8H37C37.2209 22.8 37.4 22.6209 37.4 22.4V20.8C37.4 20.5791 37.2209 20.4 37 20.4ZM36.6 22H35.8V21.2H36.6V22Z" fill="white"/>
<path d="M37 23.6H35.4C35.1791 23.6 35 23.7791 35 24V25.6C35 25.8209 35.1791 26 35.4 26H37C37.2209 26 37.4 25.8209 37.4 25.6V24C37.4 23.7791 37.2209 23.6 37 23.6ZM36.6 25.2H35.8V24.4H36.6V25.2Z" fill="white"/>
<path d="M37 26.8H35.4C35.1791 26.8 35 26.9791 35 27.2V28.8001C35 29.021 35.1791 29.2001 35.4 29.2001H37C37.2209 29.2001 37.4 29.021 37.4 28.8001V27.2C37.4 26.9791 37.2209 26.8 37 26.8ZM36.6 28.4H35.8V27.6H36.6V28.4Z" fill="white"/>
<path d="M37 30H35.4C35.1791 30 35 30.1791 35 30.4V32C35 32.2209 35.1791 32.4 35.4 32.4H37C37.2209 32.4 37.4 32.2209 37.4 32V30.4C37.4 30.1791 37.2209 30 37 30ZM36.6 31.6H35.8V30.8H36.6V31.6Z" fill="white"/>
<path d="M37 33.2H35.4C35.1791 33.2 35 33.3791 35 33.6V35.2C35 35.4209 35.1791 35.6 35.4 35.6H37C37.2209 35.6 37.4 35.4209 37.4 35.2V33.6C37.4 33.3791 37.2209 33.2 37 33.2ZM36.6 34.8H35.8V34H36.6V34.8Z" fill="white"/>
</svg>
