<svg width="32" height="32" viewBox="0 0 32 32" fill="none" xmlns="http://www.w3.org/2000/svg">
<rect width="32" height="32" rx="5" fill="#EAF1FB"/>
<path fill-rule="evenodd" clip-rule="evenodd" d="M18.9068 19.2782C17.7484 20.347 16.2004 21 14.5 21C10.9102 21 8 18.0899 8 14.5C8 10.9101 10.9102 8 14.5 8C18.0898 8 21 10.9101 21 14.5C21 16.1484 20.3864 17.6535 19.3752 18.7993C19.2527 18.8591 19.1406 18.945 19.0476 19.0563C18.9898 19.1255 18.9429 19.2001 18.9068 19.2782ZM19.1151 20.4123C17.8425 21.4071 16.2405 22 14.5 22C10.3578 22 7 18.6421 7 14.5C7 10.3579 10.3578 7 14.5 7C18.6422 7 22 10.3579 22 14.5C22 16.1795 21.448 17.7301 20.5154 18.9801L23.9259 21.8317C24.3496 22.186 24.4059 22.8166 24.0517 23.2403C23.6974 23.664 23.0667 23.7203 22.643 23.3661L19.1733 20.4649C19.1531 20.448 19.1337 20.4305 19.1151 20.4123Z" fill="#2985E7"/>
</svg>
