<svg width="55" height="55" viewBox="0 0 55 55" fill="none" xmlns="http://www.w3.org/2000/svg">
<circle cx="27.5" cy="27.5" r="27.5" fill="#F39A4A"/>
<path d="M19.0898 21.7266H17.332C17.332 22.8709 18.069 23.8373 19.0898 24.2014V26.1211H24.4842C24.75 25.6179 24.4993 26.0962 26.253 22.6055H19.9688C19.4838 22.6055 19.0898 22.2115 19.0898 21.7266Z" fill="#FEFEFE"/>
<path d="M34.0312 22.6055H27.7471C29.6074 26.308 29.2244 25.5697 29.5161 26.1211H34.9101V24.2014C35.9309 23.8373 36.6679 22.8709 36.6679 21.7266H34.9101C34.9101 22.2115 34.5161 22.6055 34.0312 22.6055Z" fill="#FEFEFE"/>
<path d="M37.547 27.8789H30.5383C31.2269 28.9791 32.1056 30.2397 33.0919 31.3945H38.4259V29.4748C39.4467 29.1108 40.1837 28.1443 40.1837 27H38.4259C38.4259 27.4849 38.0319 27.8789 37.547 27.8789Z" fill="#FEFEFE"/>
<path d="M20.9082 31.3945C21.8946 30.2397 22.7734 28.9791 23.4621 27.8789H16.4531C15.9682 27.8789 15.5742 27.4849 15.5742 27H13.8164C13.8164 28.1443 14.5534 29.1108 15.5742 29.4748V31.3945H20.9082Z" fill="#FEFEFE"/>
<path d="M27 25.038L26.2138 26.6069C26.1841 26.6669 24.3629 30.2385 21.7266 33.1103V42H24.3633V34.9102H29.6367V42H32.2734V33.1103C29.6371 30.2385 27.8159 26.6669 27.7862 26.6069L27 25.038Z" fill="#FEFEFE"/>
<path d="M26.1211 36.668H27.8789V42H26.1211V36.668Z" fill="#FEFEFE"/>
<path d="M19.9688 34.7789C18.6038 35.8888 17.1101 36.6679 15.5742 36.6679V38.4257C16.1718 38.4257 16.7576 38.3302 17.332 38.1729V40.2422H12V42H19.9688V34.7789Z" fill="#FEFEFE"/>
<path d="M42 40.2422H36.668V38.1729C37.2424 38.3301 37.8282 38.4257 38.4258 38.4257V36.6679C36.8899 36.6679 35.3962 35.8888 34.0312 34.7789V42H42V40.2422Z" fill="#FEFEFE"/>
<path d="M26.1211 12V12.8789C26.1211 15.0919 25.3208 17.8192 24.3633 19.7619V20.8477H29.6367V19.761C28.6832 17.8271 27.8789 15.0994 27.8789 12.8789V12H26.1211Z" fill="#FEFEFE"/>
</svg>
